<svg xmlns="http://www.w3.org/2000/svg" height="16" width="12" viewBox="0 0 384 512"><!--!Font Awesome Free 6.5.1 by @fontawesome - https://fontawesome.com License - https://fontawesome.com/license/free Copyright 2024 Fonticons, Inc.--><path opacity="1" fill="currentColor" d="M384 121.9V128H256V0h6.1c6.4 0 12.5 2.5 17 7l97.9 97.9A24 24 0 0 1 384 121.9zM248 160c-13.2 0-24-10.8-24-24V0H24C10.7 0 0 10.7 0 24v464c0 13.3 10.7 24 24 24h336c13.3 0 24-10.7 24-24V160H248zM123.2 400.5a5.4 5.4 0 0 1 -7.6 .2l-64.9-60.8a5.4 5.4 0 0 1 0-7.9l64.9-60.8a5.4 5.4 0 0 1 7.6 .2l19.6 20.9a5.4 5.4 0 0 1 -.4 7.7L101.7 336l40.8 35.9a5.4 5.4 0 0 1 .4 7.7l-19.6 20.9zm51.3 50.5l-27.5-8a5.4 5.4 0 0 1 -3.7-6.7l61.4-211.6a5.4 5.4 0 0 1 6.7-3.7l27.5 8a5.4 5.4 0 0 1 3.7 6.7l-61.4 211.6a5.4 5.4 0 0 1 -6.7 3.7zm160.8-111l-64.9 60.8a5.4 5.4 0 0 1 -7.6-.2l-19.6-20.9a5.4 5.4 0 0 1 .4-7.7L284.4 336l-40.8-35.9a5.4 5.4 0 0 1 -.4-7.7l19.6-20.9a5.4 5.4 0 0 1 7.6-.2l64.9 60.8a5.4 5.4 0 0 1 0 7.9z"/></svg>